{"accessors" : [{"bufferView" : 0, "byteOffset" : 0, "componentType" : 5123, "count" : 47832, "type" : "SCALAR", "max" : [47831], "min" : [0]}, {"bufferView" : 1, "byteOffset" : 0, "componentType" : 5126, "count" : 47832, "type" : "VEC3", "max" : [2.5739400386810303, 2.8536601066589355, 1.268239974975586], "min" : [-2.9827399253845215, -2.892319917678833, -0.11023200303316116]}, {"bufferView" : 1, "byteOffset" : 12, "componentType" : 5126, "count" : 47832, "type" : "VEC3", "max" : [0.9998504519462585, 0.9999946355819702, 1.0000044107437134], "min" : [-0.9998504519462585, -0.9999946355819702, -1.0000044107437134]}], "asset" : {"generator" : "Aspose.3D 20.12.3", "version" : "2.0"}, "buffers" : [{"uri" : "buffer.bin", "byteLength" : 1243640}], "bufferViews" : [{"buffer" : 0, "byteOffset" : 0, "byteLength" : 95664, "target" : 34963}, {"buffer" : 0, "byteOffset" : 95668, "byteLength" : 1147968, "byteStride" : 24, "target" : 34962}], "meshes" : [{"primitives" : [{"attributes" : {"POSITION" : 1, "NORMAL" : 2}, "indices" : 0, "mode" : 4}]}], "nodes" : [{"mesh" : 0, "name" : "node"}], "scene" : 0, "scenes" : [{"nodes" : [0]}]}